<svg xmlns="http://www.w3.org/2000/svg" xmlns:xlink="http://www.w3.org/1999/xlink" viewBox="0 0 201.55 178.52"><defs><style>.cls-1{isolation:isolate;}.cls-10,.cls-11,.cls-12,.cls-13,.cls-14,.cls-15,.cls-16,.cls-17,.cls-18,.cls-19,.cls-2,.cls-20,.cls-21,.cls-22,.cls-23,.cls-24,.cls-25,.cls-26,.cls-27,.cls-28,.cls-29,.cls-3,.cls-30,.cls-31,.cls-32,.cls-33,.cls-34,.cls-35,.cls-36,.cls-37,.cls-38,.cls-39,.cls-4,.cls-40,.cls-41,.cls-42,.cls-43,.cls-44,.cls-5,.cls-6,.cls-7,.cls-8,.cls-9{fill-rule:evenodd;}.cls-2{fill:url(#Áåçûìÿííûé_ãðàäèåíò_366);}.cls-3{fill:url(#Áåçûìÿííûé_ãðàäèåíò_80);}.cls-11,.cls-12,.cls-16,.cls-23,.cls-24,.cls-25,.cls-26,.cls-27,.cls-28,.cls-29,.cls-30,.cls-32,.cls-34,.cls-39,.cls-4,.cls-40{mix-blend-mode:multiply;}.cls-32,.cls-4,.cls-40{opacity:0.5;}.cls-4{fill:url(#Áåçûìÿííûé_ãðàäèåíò_53);}.cls-5{fill:#f47f81;}.cls-6{fill:url(#Áåçûìÿííûé_ãðàäèåíò_366-2);}.cls-7{fill:url(#Áåçûìÿííûé_ãðàäèåíò_80-2);}.cls-8{fill:#240e20;}.cls-9{fill:url(#Áåçûìÿííûé_ãðàäèåíò_292);}.cls-10{fill:url(#Áåçûìÿííûé_ãðàäèåíò_292-2);}.cls-11,.cls-16,.cls-23,.cls-24,.cls-25,.cls-26,.cls-27,.cls-28,.cls-29,.cls-30,.cls-34{opacity:0.3;}.cls-11{fill:url(#Áåçûìÿííûé_ãðàäèåíò_3);}.cls-12{fill:#31123b;opacity:0.4;}.cls-13{fill:#311e3b;}.cls-14{fill:url(#Áåçûìÿííûé_ãðàäèåíò_292-3);}.cls-15{fill:url(#Áåçûìÿííûé_ãðàäèåíò_292-4);}.cls-16{fill:url(#Áåçûìÿííûé_ãðàäèåíò_3-2);}.cls-17,.cls-37,.cls-41{fill:#fff;}.cls-17,.cls-41{mix-blend-mode:soft-light;}.cls-18{fill:url(#Áåçûìÿííûé_ãðàäèåíò_85);}.cls-19{fill:url(#Áåçûìÿííûé_ãðàäèåíò_48);}.cls-20{fill:url(#Áåçûìÿííûé_ãðàäèåíò_11);}.cls-21{fill:url(#Áåçûìÿííûé_ãðàäèåíò_366-3);}.cls-22{fill:#37193e;}.cls-23{fill:url(#Áåçûìÿííûé_ãðàäèåíò_56);}.cls-24{fill:url(#Áåçûìÿííûé_ãðàäèåíò_53-2);}.cls-25{fill:url(#Áåçûìÿííûé_ãðàäèåíò_58);}.cls-26{fill:url(#Áåçûìÿííûé_ãðàäèåíò_53-3);}.cls-27{fill:url(#Áåçûìÿííûé_ãðàäèåíò_56-2);}.cls-28{fill:url(#Áåçûìÿííûé_ãðàäèåíò_56-3);}.cls-29{fill:url(#Áåçûìÿííûé_ãðàäèåíò_58-2);}.cls-30{fill:url(#Áåçûìÿííûé_ãðàäèåíò_56-4);}.cls-31{fill:url(#Áåçûìÿííûé_ãðàäèåíò_80-3);}.cls-32{fill:url(#Áåçûìÿííûé_ãðàäèåíò_53-4);}.cls-33{fill:url(#Áåçûìÿííûé_ãðàäèåíò_85-2);}.cls-34{fill:url(#Áåçûìÿííûé_ãðàäèåíò_3-3);}.cls-35{fill:url(#Áåçûìÿííûé_ãðàäèåíò_222);}.cls-36{fill:#ce5870;}.cls-38{fill:url(#Áåçûìÿííûé_ãðàäèåíò_222-2);}.cls-39{fill:#5e364c;}.cls-40{fill:url(#Áåçûìÿííûé_ãðàäèåíò_59);}.cls-41{opacity:0.7;}.cls-42{fill:url(#Áåçûìÿííûé_ãðàäèåíò_366-4);}.cls-43{fill:url(#Áåçûìÿííûé_ãðàäèåíò_80-4);}.cls-44{fill:url(#Áåçûìÿííûé_ãðàäèåíò_85-3);}</style><linearGradient id="Áåçûìÿííûé_ãðàäèåíò_366" x1="180.38" y1="87.98" x2="180.38" y2="22.41" gradientUnits="userSpaceOnUse"><stop offset="0.01" stop-color="#46255e"/><stop offset="1" stop-color="#684a72"/></linearGradient><linearGradient id="Áåçûìÿííûé_ãðàäèåíò_80" x1="166.93" y1="62.59" x2="206.94" y2="34.29" gradientUnits="userSpaceOnUse"><stop offset="0.02" stop-color="#ffa993"/><stop offset="1" stop-color="#ffcfa9"/></linearGradient><linearGradient id="Áåçûìÿííûé_ãðàäèåíò_53" x1="184.98" y1="48.9" x2="195.98" y2="48.9" gradientUnits="userSpaceOnUse"><stop offset="0.02" stop-color="#e08893"/><stop offset="1" stop-color="#ffd1c7"/></linearGradient><linearGradient id="Áåçûìÿííûé_ãðàäèåíò_366-2" x1="21.33" y1="154.82" x2="21.33" y2="93.94" xlink:href="#Áåçûìÿííûé_ãðàäèåíò_366"/><linearGradient id="Áåçûìÿííûé_ãðàäèåíò_80-2" x1="-3" y1="145.11" x2="33.47" y2="119.31" xlink:href="#Áåçûìÿííûé_ãðàäèåíò_80"/><radialGradient id="Áåçûìÿííûé_ãðàäèåíò_292" cx="52.93" cy="11.92" r="57.3" gradientUnits="userSpaceOnUse"><stop offset="0" stop-color="#817289"/><stop offset="0.34" stop-color="#786583"/><stop offset="0.96" stop-color="#604374"/><stop offset="0.99" stop-color="#5e4173"/></radialGradient><radialGradient id="Áåçûìÿííûé_ãðàäèåíò_292-2" cx="28.97" cy="73.15" r="29.93" xlink:href="#Áåçûìÿííûé_ãðàäèåíò_292"/><linearGradient id="Áåçûìÿííûé_ãðàäèåíò_3" x1="35.28" y1="87.16" x2="45.67" y2="87.16" gradientUnits="userSpaceOnUse"><stop offset="0" stop-color="#540068"/><stop offset="1" stop-color="#81899a"/></linearGradient><radialGradient id="Áåçûìÿííûé_ãðàäèåíò_292-3" cx="84.31" cy="11.92" r="56.77" gradientTransform="matrix(-1, 0, 0, 1, 230.62, 0)" xlink:href="#Áåçûìÿííûé_ãðàäèåíò_292"/><radialGradient id="Áåçûìÿííûé_ãðàäèåíò_292-4" cx="64.41" cy="76.99" r="29.93" gradientTransform="matrix(-1, 0.04, 0.04, 1, 230.16, -7.02)" xlink:href="#Áåçûìÿííûé_ãðàäèåíò_292"/><linearGradient id="Áåçûìÿííûé_ãðàäèåíò_3-2" x1="70.72" y1="91" x2="81.11" y2="91" gradientTransform="matrix(-1, 0.04, 0.04, 1, 230.16, -7.02)" xlink:href="#Áåçûìÿííûé_ãðàäèåíò_3"/><linearGradient id="Áåçûìÿííûé_ãðàäèåíò_85" x1="80.49" y1="167.64" x2="97.68" y2="167.64" gradientUnits="userSpaceOnUse"><stop offset="0.01" stop-color="#9b1a43"/><stop offset="1" stop-color="#731653"/></linearGradient><linearGradient id="Áåçûìÿííûé_ãðàäèåíò_48" x1="68.9" y1="133.21" x2="133.53" y2="133.21" gradientUnits="userSpaceOnUse"><stop offset="0.02" stop-color="#ff4748"/><stop offset="1" stop-color="#b54263"/></linearGradient><linearGradient id="Áåçûìÿííûé_ãðàäèåíò_11" x1="106.54" y1="132.88" x2="94.34" y2="22.93" gradientUnits="userSpaceOnUse"><stop offset="0.02" stop-color="#ff8e89"/><stop offset="1" stop-color="#ffb388"/></linearGradient><linearGradient id="Áåçûìÿííûé_ãðàäèåíò_366-3" x1="82.27" y1="178.27" x2="82.27" y2="129.89" xlink:href="#Áåçûìÿííûé_ãðàäèåíò_366"/><linearGradient id="Áåçûìÿííûé_ãðàäèåíò_56" x1="77.08" y1="72.95" x2="77.08" y2="39.54" gradientUnits="userSpaceOnUse"><stop offset="0.02" stop-color="#e08893"/><stop offset="0.33" stop-color="#edb9c0"/><stop offset="0.62" stop-color="#f7dfe2"/><stop offset="0.85" stop-color="#fdf6f7"/><stop offset="1" stop-color="#fff"/></linearGradient><linearGradient id="Áåçûìÿííûé_ãðàäèåíò_53-2" x1="76.93" y1="60.18" x2="76.93" y2="47.82" xlink:href="#Áåçûìÿííûé_ãðàäèåíò_53"/><linearGradient id="Áåçûìÿííûé_ãðàäèåíò_58" x1="59.84" y1="89.2" x2="59.84" y2="60.18" gradientUnits="userSpaceOnUse"><stop offset="0.02" stop-color="#e08893"/><stop offset="1" stop-color="#fff"/></linearGradient><linearGradient id="Áåçûìÿííûé_ãðàäèåíò_53-3" x1="50.98" y1="50.94" x2="50.98" y2="27.79" xlink:href="#Áåçûìÿííûé_ãðàäèåíò_53"/><linearGradient id="Áåçûìÿííûé_ãðàäèåíò_56-2" x1="125.59" y1="71.66" x2="125.59" y2="52.91" xlink:href="#Áåçûìÿííûé_ãðàäèåíò_56"/><linearGradient id="Áåçûìÿííûé_ãðàäèåíò_56-3" x1="124.83" y1="59.92" x2="124.83" y2="47.61" xlink:href="#Áåçûìÿííûé_ãðàäèåíò_56"/><linearGradient id="Áåçûìÿííûé_ãðàäèåíò_58-2" x1="114.54" y1="89.2" x2="114.54" y2="62.29" xlink:href="#Áåçûìÿííûé_ãðàäèåíò_58"/><linearGradient id="Áåçûìÿííûé_ãðàäèåíò_56-4" x1="101.45" y1="40.45" x2="101.45" y2="27.96" xlink:href="#Áåçûìÿííûé_ãðàäèåíò_56"/><linearGradient id="Áåçûìÿííûé_ãðàäèåíò_80-3" x1="84.2" y1="178.27" x2="84.2" y2="151.24" xlink:href="#Áåçûìÿííûé_ãðàäèåíò_80"/><linearGradient id="Áåçûìÿííûé_ãðàäèåíò_53-4" x1="99.07" y1="133.05" x2="99.07" y2="80.74" xlink:href="#Áåçûìÿííûé_ãðàäèåíò_53"/><linearGradient id="Áåçûìÿííûé_ãðàäèåíò_85-2" x1="99.54" y1="126.22" x2="99.54" y2="101.6" xlink:href="#Áåçûìÿííûé_ãðàäèåíò_85"/><linearGradient id="Áåçûìÿííûé_ãðàäèåíò_3-3" x1="99.54" y1="119.46" x2="99.54" y2="101.6" xlink:href="#Áåçûìÿííûé_ãðàäèåíò_3"/><linearGradient id="Áåçûìÿííûé_ãðàäèåíò_222" x1="99.34" y1="110.59" x2="99.34" y2="102.7" gradientUnits="userSpaceOnUse"><stop offset="0" stop-color="#ffe2cd"/><stop offset="1" stop-color="#e2b3cc"/></linearGradient><linearGradient id="Áåçûìÿííûé_ãðàäèåíò_222-2" x1="100.01" y1="126.19" x2="100.01" y2="122.13" xlink:href="#Áåçûìÿííûé_ãðàäèåíò_222"/><linearGradient id="Áåçûìÿííûé_ãðàäèåíò_59" x1="86.45" y1="168.52" x2="86.45" y2="159.92" gradientUnits="userSpaceOnUse"><stop offset="0" stop-color="#ffd1c7"/><stop offset="0.98" stop-color="#e08893"/></linearGradient><linearGradient id="Áåçûìÿííûé_ãðàäèåíò_366-4" x1="138.7" y1="156.77" x2="138.7" y2="120.55" xlink:href="#Áåçûìÿííûé_ãðàäèåíò_366"/><linearGradient id="Áåçûìÿííûé_ãðàäèåíò_80-4" x1="145.81" y1="156.77" x2="145.81" y2="126.21" xlink:href="#Áåçûìÿííûé_ãðàäèåíò_80"/><linearGradient id="Áåçûìÿííûé_ãðàäèåíò_85-3" x1="136.88" y1="146.6" x2="155.95" y2="146.6" xlink:href="#Áåçûìÿííûé_ãðàäèåíò_85"/></defs><g class="cls-1"><g id="brain"><path class="cls-2" d="M201.55,49.67a8.26,8.26,0,0,1-5.57,3s-1.76,3.81-3.52,4.28a21.81,21.81,0,0,1-3.47.27,88,88,0,0,1-12.26,17.88,61,61,0,0,1-7.35,7h0A37.34,37.34,0,0,1,159.2,88l1.47-7.25a40.69,40.69,0,0,0,5.73-4.53A64.68,64.68,0,0,0,173,69.05a71.8,71.8,0,0,0,9.6-16,11.27,11.27,0,0,1-2.45-6.53,11.59,11.59,0,0,1,5.26-7.34s3.26-11.51,10.78-16.76c0,0,3.17-.19,3.9,2.63,0,0-5.35,6.52-7.44,11.59h1.27l2.45,2.63-.18.9,3.9,3.63-.73,1.26S201.55,47.87,201.55,49.67Z"/><path class="cls-3" d="M201.55,49.67a8.26,8.26,0,0,1-5.57,3s-1.76,3.81-3.52,4.28a21.81,21.81,0,0,1-3.47.27,88,88,0,0,1-12.26,17.88c-4.19-2.57-3.71-6.09-3.71-6.09a71.8,71.8,0,0,0,9.6-16s-3.17-3.8-3.44-8c0,0,1.2-3.17,6.25-5.91,0,0,3.26-11.51,10.78-16.76,0,0,3.17-.19,3.9,2.63,0,0-5.35,6.52-7.44,11.59h1.27l2.45,2.63-.18.9,3.9,3.63-.73,1.26S201.55,47.87,201.55,49.67Z"/><path class="cls-4" d="M185,45.58s1,4.21,4,5.43a32,32,0,0,0,7,1.7l-1.22-2.66a9.71,9.71,0,0,1-3.1-2.44A13.8,13.8,0,0,0,189,45.08Z"/><path class="cls-5" d="M193.94,36.63a48.58,48.58,0,0,1-3.73,8.74s0,1.7,2.55,1.73c0,0,3.16-3.86,3.45-6.94A16.37,16.37,0,0,1,192.72,48s-.13,1.63,2.62,1.33c0,0,3.12-2,4-4.3l.45.62a10.61,10.61,0,0,1-4,4.19s.18,2.34,1.5,2.61a4.85,4.85,0,0,1-1.37.24l-1.22-2.21L189,45.75l-4-.17v-.9A18.43,18.43,0,0,0,189.8,43a10.12,10.12,0,0,0,2.41-3.47l-.71-2a27.88,27.88,0,0,0-6.07,1.71,34.88,34.88,0,0,1,7.24-2.54Z"/><path class="cls-5" d="M182.62,53A10.51,10.51,0,0,0,189,57.26l-1.71,3.16s-2.93-.37-5.2-6.18Z"/><path class="cls-6" d="M42.65,99.55c-2.44,2-4.66,4-6.63,5.92A91.59,91.59,0,0,0,29,113c-6.57,8-8.74,13.6-8.74,13.6a44.17,44.17,0,0,1,4.62,9.16c-3.59,4.15-10,6.8-10,6.8l-1.39.1a105.28,105.28,0,0,0-6.82,12.13c-3.2-.13-4.08-1.76-4.08-1.76a41.75,41.75,0,0,1,3.58-10.27l-2.85-2.48v-.37L.91,137.27l.36-.73L0,133.21A54.37,54.37,0,0,1,12,124a118.91,118.91,0,0,1,10.5-13.51,130.38,130.38,0,0,1,12-11.79c3.64-3.13,6-4.8,6-4.8Z"/><path class="cls-7" d="M20.29,126.63a44.17,44.17,0,0,1,4.62,9.16c-3.59,4.15-10,6.8-10,6.8l-1.39.1a105.28,105.28,0,0,0-6.82,12.13c-3.2-.13-4.08-1.76-4.08-1.76a41.75,41.75,0,0,1,3.58-10.27l-2.85-2.48v-.37L.91,137.27l.36-.73L0,133.21A54.37,54.37,0,0,1,12,124a118.91,118.91,0,0,1,10.5-13.51A6.31,6.31,0,0,1,29,113C22.46,121,20.29,126.63,20.29,126.63Z"/><polygon class="cls-5" points="17.21 141.49 15.06 141.49 15.06 137.9 13.53 142.69 14.93 142.59 17.21 141.49"/><polygon class="cls-5" points="0 133.21 2.15 135.93 1.58 136.88 3.89 139.19 4.53 138.92 7.59 140.89 6.21 142.79 3.36 140.31 3.21 139.7 0.91 137.27 1.27 136.54 0 133.21"/><path class="cls-8" d="M27.25,105.47l2.57,6.62a67.47,67.47,0,0,1,4.67-5.1l-3.65-5S27.83,104.88,27.25,105.47Z"/><path class="cls-9" d="M25.78,69.78S22.33,36.54,34.49,18.6c0,0,17.87-16.43,65.68-18.6V9.26s-38.07,1-61.6,14.24c0,0-9,13.56-7.5,43.65Z"/><path class="cls-10" d="M35.36,65.89S24.59,67.77,19.21,76.2c0,0,2.75,20,16.15,32.22,0,0,6.89-.5,10.31-2.36Z"/><path class="cls-11" d="M35.36,108.42,41,104s-6.46-23.75-5.59-38.13l10.31,40.17A22.27,22.27,0,0,1,35.36,108.42Z"/><path class="cls-12" d="M31.07,67.15l-2.45,1s-3.29-33.34,8.85-48.15c0,0,17.24-13.54,63.94-17.34l.18,6.47s-34.14-.36-63,14.32C38.57,23.5,30,34,31.07,67.15Z"/><path class="cls-13" d="M37.47,20.05l1.1,3.45s17-11.88,61.6-14.24L100,2.83S63.52,3.39,37.47,20.05Z"/><path class="cls-14" d="M172.81,69.78s3.46-33.24-8.71-51.18c0,0-16.12-16.43-63.93-18.6V9.26s36.32,1,59.85,14.24c0,0,9,13.56,7.5,43.65Z"/><path class="cls-15" d="M162.34,65.62s10.85,1.42,16.58,9.62c0,0-1.92,20.09-14.79,32.87,0,0-6.9-.21-10.4-1.92Z"/><path class="cls-16" d="M164.13,108.11,158.36,104s5.46-24,4-38.33l-8.61,40.57A22.19,22.19,0,0,0,164.13,108.11Z"/><path class="cls-12" d="M167.52,67.15l2.45,1s3.3-33.34-8.84-48.15c0,0-14.44-13.42-61.15-17.22l.19,6.43s31-.44,59.85,14.24C160,23.5,168.57,34,167.52,67.15Z"/><path class="cls-13" d="M161.13,20.05,160,23.5S144.78,11.62,100.17,9.26L100,2.83S135.07,3.39,161.13,20.05Z"/><path class="cls-17" d="M164.13,69.15a21.87,21.87,0,0,1,12.69,7L176,78.94l-11.88-4.62Z"/><path class="cls-17" d="M21,76.32a6.86,6.86,0,0,0,.93,3.55s5.9-4.94,11.9-6.82V68A22.05,22.05,0,0,0,21,76.32Z"/><path class="cls-18" d="M80.49,178.26a13.49,13.49,0,0,0,8.35-1,15.28,15.28,0,0,0,8-19l-2.62-1.52Z"/><path class="cls-19" d="M68.9,129.89s9.55,8.47,31.11,8.47,33.52-10.31,33.52-10.31Z"/><path class="cls-20" d="M160.67,80.73h0C157.16,101,148.45,122.16,136.6,127c-19.92,8-61.23,8-73.08.63S41.68,102,37.47,83.4c-3.12-13.78-3-27.76,2-37.65,5.76-11.45,21.8-22.25,59-22.25,32.37,0,58.91,8.23,62.89,26.92C163,58.2,162.66,69.32,160.67,80.73Z"/><path class="cls-21" d="M93.25,171.74c-4.09,6.92-12.76,6.52-12.76,6.52a7,7,0,0,1-.68-6.26c3.66-3.66,5.29-11.27,5.29-11.27s-8.27-.27-12.35-6.78h0c-2.28-3.66-3.21-10.76-3.6-16.31-.29-4.35-.25-7.74-.25-7.74l7.66,3.17a69.44,69.44,0,0,0,1.08,10,26.23,26.23,0,0,0,2.73,8.15,9.35,9.35,0,0,0,.88,1.26c4.56,5.43,13,4.27,13,4.27A15.72,15.72,0,0,1,93.25,171.74Z"/><path class="cls-22" d="M109.43,95.06a12.56,12.56,0,0,1,5.84-3.29c3.17-.54,14.59,2.11,19,6.73,0,0-10-4.3-16.93-4.29A28.3,28.3,0,0,0,109.43,95.06Z"/><path class="cls-22" d="M90.64,95.06a12.62,12.62,0,0,0-5.85-3.29c-3.17-.54-15.29,2.11-19.66,6.73,0,0,10.7-4.3,17.63-4.29A28.34,28.34,0,0,1,90.64,95.06Z"/><path class="cls-23" d="M64.62,39.54A20.84,20.84,0,0,0,58,53.68a29.75,29.75,0,0,0,16.94,11.8S94.31,63,100.17,51.62c0,0-9.58,17.62-25.16,21.33,0,0-16.67-5.07-21-19.47C54,53.48,58.19,44.5,64.62,39.54Z"/><path class="cls-24" d="M71.11,47.82v5.66a16.1,16.1,0,0,0,7.7,2.76c4.22.23,7.07-4.1,7.07-4.1s.11,7.41-9.55,8c0,0-5.76-2.76-8.34-6.5A29.08,29.08,0,0,1,71.11,47.82Z"/><path class="cls-25" d="M45.67,60.18s9,18.38,12.13,20.56S74,79,74,79,58.55,89.91,57,89.17,46.4,64.35,45.67,60.18Z"/><path class="cls-26" d="M39.43,47.82s9.11-2.74,15.11-8.28a67.66,67.66,0,0,0,9.94-11.75s-5.67,21.52-27,23.15Z"/><path class="cls-27" d="M104.22,55.19s15,11,22.87,11.65S147,52.91,147,52.91s-3,15.83-20,18.75C127,71.66,114.79,71,104.22,55.19Z"/><path class="cls-28" d="M130.65,47.61l-.93,4.53s-3.53,4.18-14,0l.54,3s7.2,4.45,9.28,4.72,8.3-7,8.3-7Z"/><path class="cls-29" d="M75,78.62s5.67-2.4,9.75-2.13,15.47-1.35,15.47-1.35l11,1.74s11.14.33,17.12,1.39,12.4,2.78,14,2.47,11.8-18.45,11.8-18.45S146,88,142.13,89.2c0,0-13.7-9.8-19.38-10.93s-22,2.47-22,2.47l-6.26-.45S84,77.58,75,78.62Z"/><path class="cls-30" d="M82.4,29.28s6.46,6,12.12,6,6.26-4.89,6.26-4.89l1.66-.63s-.44,5.88,4.27,5.52S120.5,28,120.5,28s-9.67,12-19.38,12.47S82.4,29.28,82.4,29.28Z"/><path class="cls-31" d="M93.25,171.74c-4.09,6.92-12.76,6.52-12.76,6.52a7,7,0,0,1-.68-6.26c3.66-3.66,5.29-11.27,5.29-11.27s-8.27-.27-12.35-6.78c.32.19,5.07,3.1,7.6-2.71h0a9.35,9.35,0,0,0,.88,1.26c4.56,5.43,13,4.27,13,4.27A15.72,15.72,0,0,1,93.25,171.74Z"/><polygon class="cls-5" points="94.53 23.48 100.19 29.29 100.16 66.7 100.36 98.5 101.12 72.14 102.44 29.75 107.71 23.61 94.53 23.48"/><path class="cls-5" d="M100.17,51.62S90.41,68.06,74.78,71.87c0,0-17.12-6.39-20-18.75,0,0,4.55-15.43,20.45-18,0,0,9.78,5.85,9.3,20.08a13.68,13.68,0,0,1-9,3.77s-5.44-2.31-6.8-6.79l2.31-4.35-8.56,8.29,5.17-.92s5.84,5.26,8.69,6.62c0,0,9.78-3.94,11.28-7.88,0,0-5.3-16.17-12.64-20.79,0,0-13.18,2.58-22.55,20.25,0,0,3.67,14.17,22.69,20.83,0,0,11.8-5.43,18.39-12.41,0,0,4.31-2.62,6.59-2.44Z"/><path class="cls-5" d="M101,76.76l-5.33,2.85s-15.27-1.82-19.32-1.34S60.15,87.06,57.62,88,46.43,58.68,44.39,58.27s-7,10.61-6.43,20S47.33,92.11,48.15,91.7s.27-9.47-.82-13.43a11.46,11.46,0,0,0-4.68-6.13s-1.37,5.52,0,8.7c0,0-.1-4.4.83-5.84,0,0,2.36,1.4,3.27,5.74a28,28,0,0,1,.09,9.06S39.94,86.16,39,79s2.06-16.2,3.7-16.95S54,88.85,57.8,91.73C57.8,91.73,68,81,76.33,79.3s22.55,2.08,23.93,4Z"/><path class="cls-5" d="M39.43,45.74V50.4A36.59,36.59,0,0,0,53.9,43c7.25-6,7.7-13.13,7.7-13.13H58.31l8.75-2.9S59,48.16,37,52.14Z"/><path class="cls-5" d="M77.89,24.81s8.69,13.36,22.29,17.3l.8-4.48-3.51,1.91s-13.66-5.61-18.34-14.9Z"/><path class="cls-5" d="M46.64,107.88s3.08-9.56,5.4-11.37,13.18,17.57,15,26.27-5.53,3.43-5.53,3.43l-2.27-1.83s3.66,2.57,5.87,1.84S57.05,98.84,53.31,98.5s-6,10.54-6,10.54Z"/><path class="cls-5" d="M54.45,119.46s2.73.3,3.14-.72-2.51-6.65-2.51-6.65L53,111.68l2.92-5-.06,5s2.78,5.57,2.58,7.41-2.71,1.85-2.71,1.85Z"/><path class="cls-5" d="M101.59,51.42S111.36,67.86,127,71.66c0,0,17.12-6.38,20-18.75,0,0-4.56-15.42-20.45-18,0,0-9.79,5.84-9.31,20.08a13.69,13.69,0,0,0,9,3.77S131.6,56.45,133,52l-2.31-4.35,8.56,8.29L134.05,55s-5.84,5.26-8.7,6.62c0,0-9.78-3.94-11.28-7.88,0,0,5.3-16.17,12.64-20.79,0,0,13.18,2.58,22.56,20.24,0,0-3.67,14.18-22.7,20.84,0,0-11.79-5.44-18.38-12.41,0,0-4.31-2.63-6.6-2.45Z"/><path class="cls-5" d="M100.17,76.76l5.11,2.85s14.62-1.82,18.49-1.34,15.5,8.79,17.93,9.71,12.11-30.65,14.06-31.06,5.32,12,4.76,21.35-9,13.84-9.76,13.43-.26-9.47.78-13.43A11.43,11.43,0,0,1,156,72.14s1.31,5.52,0,8.7c0,0,.1-4.4-.8-5.84,0,0-2.25,1.4-3.12,5.74A29,29,0,0,0,152,89.8s6.61-3.64,7.55-10.78-1.28-17.59-2.86-18.34-11.54,28.17-15.18,31.05c0,0-9.74-10.71-17.76-12.43s-21.94,2.11-23.26,4Z"/><path class="cls-5" d="M159.2,44.62v4.65s-4.09-.52-11.34-6.5-8.4-11.8-8.4-11.8l2-.66L134.7,28S139.64,47,161.62,51Z"/><path class="cls-5" d="M123.59,25.43s-8.41,12.54-22,16.48l-.8-4.49,3.51,1.91s13.24-4.83,17.93-14.12Z"/><path class="cls-5" d="M152.77,107.67S150,98.11,148,96.3s-11.69,17.58-13.32,26.27,4.9,3.44,4.9,3.44l2-1.83s-3.24,2.56-5.2,1.83,7.17-27.38,10.48-27.71,5.34,10.53,5.34,10.53Z"/><path class="cls-5" d="M145.85,119.25s-2.43.31-2.79-.71,2.23-6.66,2.23-6.66l1.87-.4-2.59-5,.06,5s-2.47,5.57-2.29,7.4,2.4,1.86,2.4,1.86Z"/><path class="cls-32" d="M154.5,88c-2.38.57-2.8-2.8-2.8-2.8l-1.26,1.72c-2,7.65-10.95,11.6-10.95,11.6s-7.18-11.87-14.74-13-16,4.62-16.94,9.1a68.14,68.14,0,0,1,25,4.49l.3.11a33.06,33.06,0,0,1-7.67,2.35s-.6-1.47-4.7-1.83-12.94,3.85-21.39,3.89-11.11-2.08-16.18-3a22.87,22.87,0,0,0-10.23.93,9.61,9.61,0,0,1-4.65-2.46h0a63.14,63.14,0,0,1,25.12-4c-.91-4.48-9.52-10.64-17.07-9.55S61.6,98.49,61.6,98.5a11.72,11.72,0,0,1-5.9-2.11c-5.46-3.84-7.16-8.15-7.16-8.15s-.08,2.5-1.34,2.44S40.05,85,40.05,85c-1.31.17-2.13-1.84-2.13-1.84l-.45.21c4.21,18.59,14.26,36.81,26.05,44.18s53.16,7.4,73.08-.63c11.85-4.79,20.56-25.94,24.07-46.21A17.73,17.73,0,0,1,154.5,88Z"/><path class="cls-33" d="M115,119.46a19.78,19.78,0,0,1-15.43,6.76,20.33,20.33,0,0,1-15.66-6.76c-6.08-6.79-6.85-16.38-4-17.57,3.1-1.28,10.38,3.75,19.94,3.48s16.33-5,19.74-3.48C121.8,102.86,121.05,112.6,115,119.46Z"/><path class="cls-34" d="M115,119.46s-2.08-7.1-15.48-7.1c-13.08,0-15.6,7.1-15.6,7.1h0c-6.08-6.79-6.85-16.38-4-17.57,3.1-1.28,10.38,3.75,19.94,3.48s16.33-5,19.74-3.48C121.8,102.86,121.05,112.6,115,119.46Z"/><path class="cls-35" d="M85.75,102.7s4.67,7.89,13.45,7.89,13.74-7.89,13.74-7.89a50.13,50.13,0,0,1-13.77,2.42A44.14,44.14,0,0,1,85.75,102.7Z"/><path class="cls-36" d="M94,61.57l6.78-9.43s5.34,5.72,6.93,8.85c0,0-5-2.82-6.93-2.73S94,61.57,94,61.57Z"/><path class="cls-36" d="M94.52,80.29l6.26,1.77,3.44-1.77a8.51,8.51,0,0,0-3.94-1.35A24.68,24.68,0,0,0,94.52,80.29Z"/><path class="cls-36" d="M67.35,68.09s6.44,4.12,8.21,3.57,8.63-3.82,8.63-3.82-7.26,6.38-9,6.38C73.6,74.22,67.35,68.09,67.35,68.09Z"/><polygon class="cls-36" points="68.8 52.16 69.45 55.4 67.72 55.19 62.55 56.11 71.11 47.82 68.8 52.16"/><path class="cls-36" d="M145.8,50.05,147,52.91a19.11,19.11,0,0,1-3.12,6.62s5-4.38,5.43-6.35Z"/><path class="cls-36" d="M130.65,47.61,133,52l-1.15,4.15L134.05,55l5.16.91S132.85,49.79,130.65,47.61Z"/><path class="cls-36" d="M134.41,83.65s7.38,4.73,7.92,4,3-5.63,3-5.63-.86,6.07-3.78,9.67C141.53,91.73,136.43,84.88,134.41,83.65Z"/><path class="cls-36" d="M54,82.06S56.7,88.4,57.62,88s6-3.36,6-3.36-5.1,7.84-5.8,7.11S54.26,85.64,54,82.06Z"/><polygon class="cls-36" points="144.57 106.44 144.63 111.41 143.84 113.76 145.29 111.88 147.16 111.47 144.57 106.44"/><polygon class="cls-36" points="52.97 111.68 55.89 106.65 55.83 111.61 56.44 112.9 55.08 112.09 52.97 111.68"/><path class="cls-36" d="M59.26,124.38s4.61,3.11,5.87,1.84-1.22-7.52-1.22-7.52,3.72,6.22,2.94,8.2-4.52,0-4.52,0Z"/><path class="cls-36" d="M151.7,85.18s-.16,4.59.32,4.62,3.21-2.5,3.21-2.5-2.91,4.81-4.47,4.4A20,20,0,0,1,151.7,85.18Z"/><polygon class="cls-36" points="96.4 40.26 101.45 38.78 106.27 40.14 101.58 41.91 101.12 43.2 100.18 42.11 96.4 40.26"/><path class="cls-36" d="M120.74,69.9s4.93,1.7,6.69,1.76,8.09-3.82,8.09-3.82-6.81,6.5-9,6.18S120.74,69.9,120.74,69.9Z"/><path class="cls-37" d="M122.67,46.48s5.45-2.13,4.1-6.57A7.51,7.51,0,0,0,122.67,46.48Z"/><path class="cls-37" d="M77.89,43.2S77,49.89,81.44,51C81.44,51,83.71,46.46,77.89,43.2Z"/><path class="cls-37" d="M84.19,26.37s7.68,2.49,12.21,0A11.78,11.78,0,0,0,84.19,26.37Z"/><path class="cls-37" d="M106.27,27.48s6.87,1.68,12.49-1.42C118.76,26.06,110.81,23.31,106.27,27.48Z"/><path class="cls-37" d="M144.85,34.21s.65,3.91,3.31,4.57,3.66-.52,3.66-.52S150.28,34.05,144.85,34.21Z"/><path class="cls-37" d="M50,36s3.73,1.39,5.62-.6S57,32,57,32,52.56,31.22,50,36Z"/><path class="cls-17" d="M138.19,78s3.62,1.34,5.47-.59S145,74,145,74,140.68,73.3,138.19,78Z"/><path class="cls-17" d="M116.72,83.4s1.89,1.2,3.16.33S121,82,121,82A3.89,3.89,0,0,0,116.72,83.4Z"/><path class="cls-17" d="M102.06,128.06s1.88,1.2,3.16.32,1.15-1.73,1.15-1.73A3.89,3.89,0,0,0,102.06,128.06Z"/><path class="cls-17" d="M78,80.54s1.37,3.37,3.88,3.41S85,82.75,85,82.75A6.33,6.33,0,0,0,78,80.54Z"/><path class="cls-38" d="M87.82,122.84s14.76,2.67,24.37-.71c0,0-5,4.06-11.34,4.06C90.64,126.19,87.82,122.84,87.82,122.84Z"/><path class="cls-39" d="M77.63,143.09c-2.44-2.71-8.49-5.46-8.49-5.46-.29-4.35-.25-7.74-.25-7.74l7.66,3.17A69.44,69.44,0,0,0,77.63,143.09Z"/><path class="cls-40" d="M85.1,160.73a15.38,15.38,0,0,0,5.54-.81,11,11,0,0,1-8.37,8.6S84.82,164.26,85.1,160.73Z"/><path class="cls-41" d="M128.13,39v1.47s6.44.53,8.59,2.75,3.49,8.14,4.9,9.53a10.65,10.65,0,0,0-1.07-6.25c-1.64-2.94-2.13-2.31-3.83-3.67S131.59,38.77,128.13,39Z"/><path class="cls-41" d="M138.33,56.91c-1.63.24-5.21,1.87-4.94,4.66,0,0,3.4-1,4.21-2.33A4.14,4.14,0,0,0,138.33,56.91Z"/><path class="cls-41" d="M106.27,48.77s-.17-4.35,2.14-6.86,7.68-4.69,9-5.85,2-4.21,3.6-5a2.61,2.61,0,0,1,2.61,0s-2,2.13-3.09,3.11-2.22,1.47-3.17,2.26-2.77,4.15-4.82,7S106.27,48.77,106.27,48.77Z"/><path class="cls-41" d="M78.34,75a7.79,7.79,0,0,1,5.85-2c3.77.19,7.21-7.86,12.21-8.87,0,0-1.87,7-5.09,8.38s-5.35.43-7.12.68S82.48,74.61,81.26,75A6.65,6.65,0,0,1,78.34,75Z"/><path class="cls-41" d="M85,39.77s2.79,8.28,9,9C94,48.77,91.73,41.8,85,39.77Z"/><path class="cls-41" d="M49,58.26s2.79,1.47,4.52,6.45.66,8.12,6.31,11,11.91.65,11.91.65-3.9-1.08-5.89-.65-2.1,1-3.11.69,0-4.21-2.37-6.11-4.61-2-5.8-4S53.3,61.54,52,59.91A4.2,4.2,0,0,0,49,58.26Z"/><path class="cls-41" d="M121.83,96.87c2.46-.33,7.1.88,7.57,2.78a7.16,7.16,0,0,1-4.57-.34C122.34,98.3,121.83,96.87,121.83,96.87Z"/><path class="cls-41" d="M60.38,50.53s1.7-5.63,5.77-7.33,5.78-2.65,7.14-4.42,3.79,2.72,3.79,2.72a4.53,4.53,0,0,0-3.16-1c-2.25-.06-6,2.2-6.63,3.46S64.27,50.17,60.38,50.53Z"/><path class="cls-41" d="M68,31.93s3.62-3.32,5.89-3.63,6.21,2.09,8,5.07c0,0-2-.73-4.94-2s-3.46-1.72-4.32-1.68S68,31.93,68,31.93Z"/><path class="cls-41" d="M130.65,113.91s.34-9.54,6.23-11.21C136.88,102.7,136.65,113.92,130.65,113.91Z"/><path class="cls-42" d="M155.27,146.24c-1.54,6.61-16.68,11.86-18.39,10.23-1.35-1.27-.34-16.81-1-23.87-.16-2-.47-3.3-1-3.46-1.87-.6-7.52,2.93-9.39,3.76,0,0-4.49-.34-3.77-4.51s12.07-9,16.95-7.61c1.5.43,2.45,2.6,3.05,5.44,1.34,6.36.94,16,1.19,16.3s6.25-6.25,11.06-6.7C154,135.82,156.8,139.62,155.27,146.24Z"/><path class="cls-43" d="M155.27,146.24c-1.54,6.61-16.68,11.86-18.39,10.23-1.35-1.27-.34-16.81-1-23.87h0s1.55-6.57,5.84-6.38c1.34,6.36.94,16,1.19,16.3s6.25-6.25,11.06-6.7C154,135.82,156.8,139.62,155.27,146.24Z"/><path class="cls-44" d="M136.88,156.47s3.13-10,8.93-15,8.19-5.67,8.19-5.67a11.59,11.59,0,0,1,1.27,10.42C153.18,152.31,141.22,160.05,136.88,156.47Z"/><path class="cls-41" d="M64.13,103.22s.26,6.74,2.06,9.44A30.56,30.56,0,0,0,69.61,117s.86-1.12-1.19-6.89C66.58,104.94,64.13,103.22,64.13,103.22Z"/><path class="cls-41" d="M49,109.3s-.52-5,1.45-6.08C50.46,103.22,52,107.4,49,109.3Z"/></g></g></svg>